<svg width="316" height="281" viewBox="0 0 316 281" fill="none" xmlns="http://www.w3.org/2000/svg">
<path d="M-37.6321 50.893L-143.172 109.741C-150.033 113.567 -157.322 116.571 -164.886 118.691L-292.485 154.451C-345.752 169.38 -376.779 224.719 -361.726 277.952L-355.291 300.709C-342.784 344.938 -301.737 374.946 -255.798 373.445L170.552 359.514C215.908 358.032 254.58 326.195 264.745 281.967L268.973 263.575C273.548 243.67 271.918 222.841 264.303 203.89L257.609 187.231C242.458 149.526 204.109 126.469 163.702 130.771L157.27 131.456C123.181 135.085 90.4591 117.02 75.3681 86.2389C54.7856 44.2571 3.20456 28.1228 -37.6321 50.893Z" fill="#FFC801"/>
<path d="M2.36789 41.893L-103.172 100.741C-110.033 104.567 -117.322 107.571 -124.886 109.691L-252.485 145.451C-305.752 160.38 -336.779 215.719 -321.726 268.952L-315.291 291.709C-302.784 335.938 -261.737 365.946 -215.798 364.445L210.552 350.514C255.908 349.032 294.58 317.195 304.745 272.967L308.973 254.575C313.548 234.67 311.918 213.841 304.303 194.89L297.609 178.231C282.458 140.526 244.109 117.469 203.702 121.771L197.27 122.456C163.181 126.085 130.459 108.02 115.368 77.2389C94.7856 35.2571 43.2046 19.1228 2.36789 41.893Z" stroke="#FFC801" stroke-width="3"/>
</svg>
