<svg width="391" height="593" viewBox="0 0 391 593" fill="none" xmlns="http://www.w3.org/2000/svg">
<path d="M259.435 255.174L372.304 298.33C379.642 301.136 386.623 304.797 393.105 309.236L502.427 384.127C548.066 415.391 610.416 403.662 641.573 357.951L654.893 338.409C680.781 300.429 677.445 249.693 646.807 215.43L362.463 -102.56C332.214 -136.388 282.978 -145.607 242.539 -125.013L225.722 -116.449C207.522 -107.181 192.596 -92.5618 182.952 -74.5582L174.475 -58.7323C155.287 -22.9126 162.222 21.2932 191.456 49.5165L196.11 54.0095C220.774 77.8196 227.924 114.507 214.008 145.836C195.027 188.566 215.763 238.475 259.435 255.174Z" fill="#FFC801"/>
<path d="M233.435 296.174L346.304 339.33C353.642 342.136 360.623 345.797 367.105 350.236L476.427 425.127C522.066 456.391 584.416 444.662 615.573 398.951L628.893 379.409C654.781 341.429 651.445 290.693 620.807 256.43L336.463 -61.5595C306.214 -95.3879 256.978 -104.607 216.539 -84.0131L199.722 -75.4491C181.522 -66.1808 166.596 -51.5618 156.952 -33.5582L148.475 -17.7323C129.287 18.0874 136.222 62.2932 165.456 90.5165L170.11 95.0095C194.774 118.82 201.924 155.507 188.008 186.836C169.027 229.566 189.763 279.475 233.435 296.174Z" stroke="#FFC801" stroke-width="3"/>
</svg>
